<svg xmlns="http://www.w3.org/2000/svg" viewBox="0 0 64 64" role="img" aria-label="Person using a laptop">
  <defs>
    <radialGradient id="o4bg" cx="50%" cy="36%" r="72%">
      <stop offset="0" stop-color="#15151a"/><stop offset="1" stop-color="#0a0a0d"/>
    </radialGradient>
    <linearGradient id="o4g" x1="0" y1="0" x2="0" y2="1">
      <stop offset="0" stop-color="#ffd66b"/><stop offset="1" stop-color="#e08a12"/>
    </linearGradient>
  </defs>
  <rect x="2" y="2" width="60" height="60" rx="15" fill="url(#o4bg)"/>
  <ellipse cx="32" cy="36" rx="23" ry="16" fill="#ffb238" opacity="0.10"/>
  <path d="M14 50 C14 39 22 34 32 34 C42 34 50 39 50 50 Z" fill="url(#o4g)"/>
  <circle cx="32" cy="20" r="8.5" fill="url(#o4g)"/>
  <!-- shaded side -->
  <path d="M32 34 C42 34 50 39 50 50 L40 50 C40 41 37 36 32 34Z" fill="#00000022"/>
  <!-- laptop -->
  <rect x="21" y="37" width="22" height="13" rx="2" fill="#0a0a0d"/>
  <rect x="24" y="39.5" width="16" height="8" rx="1" fill="url(#o4g)"/>
  <path d="M15 50 L49 50 L54 56 L10 56 Z" fill="url(#o4g)"/>
  <rect x="14" y="50" width="36" height="1.4" fill="#0a0a0d" opacity="0.5"/>
</svg>
